<svg xmlns="http://www.w3.org/2000/svg" viewBox="0 0 490 490"><defs><style>.cls-1{fill:#fff;}</style></defs><title>Element 1logo</title><g id="lmdsg" data-name="Ebene 2"><g id="Ebene_1-2" data-name="Ebene 1"><path class="cls-1" d="M284.05,490a204.59,204.59,0,0,1-145.62-60.32,24.09,24.09,0,0,1,0-34L185,349.09H139v-46L92.45,349.68a24.08,24.08,0,0,1-34,0L7,298.3a24.05,24.05,0,0,1,0-34L264.28,7a24.05,24.05,0,0,1,34,0l2.4,2.4L28.86,281.28l46.57,46.57,56-56a24.08,24.08,0,0,1,34,0l1,1v48.8h48.8l1,1a24.08,24.08,0,0,1,0,34l-56,56a177.5,177.5,0,0,0,89.67,46.63,180.44,180.44,0,0,0,68.23,0A178.5,178.5,0,0,0,432.29,184.55l-80.93,80.93a24.05,24.05,0,0,1-34,0L247,195.1l-57.22,57.22,46,46,18.9-18.9L232,256.8a24.08,24.08,0,0,1,0-34l2.4-2.41,42,42a24.08,24.08,0,0,1,0,34l-23.71,23.71a24.05,24.05,0,0,1-34,0l-50.81-50.81A24.1,24.1,0,0,1,161,254.63c0-.38-.06-.76-.08-1.14,0-.59,0-1.16,0-1.74q0-.55.05-1.11c0-.59.1-1.18.18-1.76a23.85,23.85,0,0,1,6.8-13.56l62-62a24.05,24.05,0,0,1,34,0l70.39,70.38,80.77-80.77c-1.59-1.72-3.22-3.41-4.86-5.05l-63-63-18.9,18.9,48.36,48.36a24.05,24.05,0,0,1,0,34L353,219.87a24.05,24.05,0,0,1-34,0L268.2,169a24.05,24.05,0,0,1,0-34l2.4-2.4L336,198.05l18.9-18.9-48.36-48.37a24.05,24.05,0,0,1,0-34l23.71-23.71a23.82,23.82,0,0,1,14.2-6.88l1-.1a24.07,24.07,0,0,1,18.79,7l65.37,65.37h0A205.95,205.95,0,0,1,284.05,490Z"/></g></g>
</svg>
